<?xml version="1.0" encoding="utf-8"?>
<!-- Generator: Adobe Illustrator 24.1.2, SVG Export Plug-In . SVG Version: 6.00 Build 0)  -->
<svg version="1.1" id="Layer_1" xmlns="http://www.w3.org/2000/svg" xmlns:xlink="http://www.w3.org/1999/xlink" x="0px" y="0px"
	 viewBox="0 0 106.8 27.3" style="enable-background:new 0 0 106.8 27.3;" xml:space="preserve">
<style type="text/css">
	.st0{fill:#F5D71F;}
	.st1{fill:#FFFFFF;}
</style>
<circle class="st0" cx="100.5" cy="18.8" r="1.8"/>
<g>
	<path class="st1" d="M0,0v27.3h106.8V0H0z M54.4,1h25.8v25.3H54.4V1z M53.4,26.3h-26V1h26V26.3z M1,1h25.4v25.3H1V1z M105.8,26.3
		H81.3V1h24.6L105.8,26.3L105.8,26.3z"/>
</g>
<path class="st1" d="M8.3,7c0-0.2,0.2-0.4,0.4-0.4h8.1c0.2,0,0.4,0.2,0.4,0.4v1.6c0,0.2-0.2,0.4-0.4,0.4h-5.9v3.3h4.9
	c0.2,0,0.4,0.2,0.4,0.4v1.7c0,0.2-0.2,0.4-0.4,0.4h-4.9v3.5h5.9c0.2,0,0.4,0.2,0.4,0.4v1.6c0,0.2-0.2,0.4-0.4,0.4H8.7
	c-0.2,0-0.4-0.2-0.4-0.4L8.3,7L8.3,7z"/>
<path class="st1" d="M34.3,7c0-0.2,0.2-0.4,0.4-0.4h4.7c3.9,0,7,3.1,7,7c0,3.9-3.2,7-7,7h-4.7c-0.2,0-0.4-0.2-0.4-0.4V7z M39.2,18.2
	c2.6,0,4.5-2,4.5-4.6c0-2.6-1.9-4.6-4.5-4.6h-2.3v9.1L39.2,18.2L39.2,18.2z"/>
<path class="st1" d="M66,7c0-0.2,0.2-0.4,0.4-0.4h1.9c0.2,0,0.4,0.2,0.4,0.4v13.2c0,0.2-0.2,0.4-0.4,0.4h-1.9
	c-0.2,0-0.4-0.2-0.4-0.4V7z"/>
<path class="st1" d="M92.3,9h-3.1c-0.2,0-0.4-0.2-0.4-0.4V7c0-0.2,0.2-0.4,0.4-0.4H98c0.2,0,0.4,0.2,0.4,0.4v1.6
	C98.4,8.9,98.2,9,98,9h-3.1v11.2c0,0.2-0.2,0.4-0.4,0.4h-1.9c-0.2,0-0.4-0.2-0.4-0.4V9z"/>
</svg>
